<?xml version="1.0" ?><svg id="Layer_1" style="enable-background:new 0 0 64 64;" version="1.1" viewBox="0 0 64 64" xml:space="preserve" xmlns="http://www.w3.org/2000/svg" xmlns:xlink="http://www.w3.org/1999/xlink"><style type="text/css">
	.st0{fill:none;stroke:#1A1A1A;stroke-width:2;stroke-linecap:round;stroke-linejoin:round;stroke-miterlimit:10;}
	.st1{fill:#1A1A1A;}
	.st2{fill:none;stroke:#000000;stroke-width:2;stroke-linecap:round;stroke-linejoin:round;stroke-miterlimit:10;}
	.st3{fill:none;stroke:#1A1A1A;stroke-width:2;stroke-linecap:round;stroke-linejoin:round;}
	.st4{fill:none;stroke:#1A1A1A;stroke-width:2;stroke-linecap:round;stroke-linejoin:round;stroke-dasharray:5.8,5.8;}
</style><g><path class="st0" d="M20.1,53.7l-6.4-2.1c-0.6-0.2-1.1-0.7-1.3-1.3l-2.1-6.4c-0.2-0.7,0-1.5,0.5-2.1l10.6-10.6l11.3,11.3L22.1,53.2   C21.6,53.7,20.8,53.9,20.1,53.7z"/><path class="st0" d="M22.1,41.9L22.1,41.9c-0.8-0.8-0.8-2,0-2.8l23.3-23.3l2.8,2.8L24.9,41.9C24.1,42.7,22.9,42.7,22.1,41.9z"/><path class="st0" d="M47.6,9.4l7.1,7.1l-0.7,0.7c-2,2-5.1,2-7.1,0l0,0c-2-2-2-5.1,0-7.1L47.6,9.4z"/></g></svg>